<?xml version="1.0" encoding="utf-8"?>
<!-- Generator: Adobe Illustrator 15.0.0, SVG Export Plug-In . SVG Version: 6.00 Build 0)  -->
<!DOCTYPE svg PUBLIC "-//W3C//DTD SVG 1.1//EN" "http://www.w3.org/Graphics/SVG/1.1/DTD/svg11.dtd">
<svg version="1.1" id="Logo" xmlns="http://www.w3.org/2000/svg" xmlns:xlink="http://www.w3.org/1999/xlink" x="0px" y="0px"
	 width="170px" height="45px" viewBox="0 0 170 45" enable-background="new 0 0 170 45" xml:space="preserve">
<g>
	<path fill="#878787" d="M10.404,31.898v2.242H6.403v9.764H4.001v-9.764H0v-2.242H10.404z"/>
	<path fill="#878787" d="M12.844,43.904V31.898h2.402v4.804h5.594v-4.811h2.401v12.005l-2.401,0.008v-4.962h-5.594v4.962H12.844
		L12.844,43.904z"/>
	<path fill="#878787" d="M26.458,43.904V31.907l8.819-0.009v2.242h-6.419v2.562h4.81v2.232h-4.81v2.729h6.402v2.24H26.458
		L26.458,43.904z"/>
	<path fill="#878787" d="M38.35,43.904V31.898h0.8l5.202,5.923l5.21-5.923h0.8v12.006h-2.401l-0.009-6.963l-3.602,4.001
		l-3.602-4.001v6.963H38.35z"/>
	<path fill="#878787" d="M53.38,43.904V31.907l8.82-0.009v2.242h-6.419v2.562h4.81v2.232h-4.81v2.729h6.402v2.24H53.38L53.38,43.904
		z"/>
	<path fill="#878787" d="M71.53,43.904V31.898h0.8l5.202,5.923l5.21-5.923h0.8v12.006h-2.401l-0.008-6.963l-3.602,4.001
		l-3.602-4.001v6.963H71.53z"/>
	<path fill="#878787" d="M87.705,42.179c-1.148-1.148-1.722-2.576-1.722-4.277c0-1.707,0.573-3.135,1.722-4.283
		c1.146-1.146,2.573-1.721,4.282-1.721c1.706,0,3.134,0.574,4.282,1.721c1.146,1.148,1.721,2.576,1.721,4.283
		c0,1.709-0.574,3.135-1.721,4.281c-1.148,1.148-2.576,1.722-4.282,1.722C90.278,43.904,88.851,43.329,87.705,42.179z
		 M91.996,41.663c1.06,0,1.925-0.361,2.592-1.082c0.665-0.72,1.002-1.611,1.002-2.68c0-1.066-0.335-1.961-1.002-2.682
		c-0.667-0.72-1.536-1.081-2.609-1.081c-1.062,0-1.927,0.361-2.593,1.081c-0.667,0.721-1,1.615-1,2.682c0,1.068,0.331,1.96,1,2.68
		C90.052,41.304,90.923,41.663,91.996,41.663z"/>
	<path fill="#878787" d="M102.646,31.898v6.964c0,0.908,0.268,1.574,0.801,2c0.533,0.429,1.2,0.641,2,0.641s1.468-0.212,2.001-0.641
		c0.533-0.426,0.8-1.092,0.8-2v-6.964h2.401v7.604c0,1.228-0.493,2.269-1.48,3.121c-0.988,0.854-2.229,1.28-3.722,1.28
		c-1.494,0-2.734-0.426-3.721-1.28c-0.989-0.853-1.481-1.894-1.481-3.121v-7.604H102.646z"/>
	<path fill="#878787" d="M113.899,43.904V31.898h0.799l7.524,7.524v-7.524h2.401v12.006h-0.881l-7.443-7.443v7.443H113.899z"/>
	<path fill="#878787" d="M137.564,31.898v2.242h-4.002v9.764h-2.401v-9.764h-4.001v-2.242H137.564z"/>
	<path fill="#878787" d="M139.372,43.904l4.802-12.006h2.401l4.794,11.997l-2.553,0.009l-0.721-1.841h-5.441l-0.719,1.841H139.372z
		 M145.438,35.1l-1.824,4.562h3.602L145.438,35.1z"/>
	<path fill="#878787" d="M153.816,31.891h2.394v12.014h-2.394V31.891z"/>
	<path fill="#878787" d="M159.274,43.904V31.898h0.801l7.522,7.524v-7.524H170v12.006h-0.881l-7.442-7.443v7.443H159.274z"/>
</g>
<path id="Filled" fill="#878787" d="M80.872,13.624l-3.637-4.591l-9.225,12.826h6.901l-1.595,2.188h-9.799L77.166,5.164l5.15,6.444
	L80.872,13.624z M77.046,21.859L91.501,1.856l17.857,22.191H97.556L87.425,11.526l-2.517,3.465l7.043,9.057H75.519 M83.487,16.994
	l-3.529,4.868h7.337L83.487,16.994z M91.624,5.733l-2.785,3.822l9.948,12.307h5.811L91.624,5.733z"/>
</svg>
